HIERARCHY
ROOT Pelvis
{
	OFFSET 0.000000 0.000000 0.000000
	CHANNELS 6 Xposition Yposition Zposition Xrotation Yrotation Zrotation
	JOINT LeftUpLeg_virtual
	{
		OFFSET 0.000000 0.000000 0.000000
		CHANNELS 3 Xrotation Yrotation Zrotation
		JOINT LeftUpLeg
		{
			OFFSET 18.735201 -5.666702 -4.541200
			CHANNELS 3 Xrotation Yrotation Zrotation
			JOINT LeftLeg
			{
				OFFSET -0.021200 -31.938179 0.493100
				CHANNELS 3 Xrotation Yrotation Zrotation
				JOINT LeftFoot
				{
					OFFSET 0.021200 -31.938179 -4.336299
					CHANNELS 3 Xrotation Yrotation Zrotation
					JOINT LeftToeBase
					{
						OFFSET 0.943001 -26.722000 15.023500
						CHANNELS 3 Xrotation Yrotation Zrotation
						End Site
						{
							OFFSET 0 0 0
						}
					}
				}
			}
		}
	}
	JOINT RightUpLeg_virtual
	{
		OFFSET 0.000000 0.000000 0.000000
		CHANNELS 3 Xrotation Yrotation Zrotation
		JOINT RightUpLeg
		{
			OFFSET -18.735201 -5.666702 -4.541200
			CHANNELS 3 Xrotation Yrotation Zrotation
			JOINT RightLeg
			{
				OFFSET 0.018946 -31.938133 0.493100
				CHANNELS 3 Xrotation Yrotation Zrotation
				JOINT RightFoot
				{
					OFFSET -0.018946 -31.938126 -4.336299
					CHANNELS 3 Xrotation Yrotation Zrotation
					JOINT RightToeBase
					{
						OFFSET -0.943001 -26.722004 15.023500
						CHANNELS 3 Xrotation Yrotation Zrotation
						End Site
						{
							OFFSET 0 0 0
						}
					}
				}
			}
		}
	}
	JOINT Hips_virtual
	{
		OFFSET 0.000000 0.000000 0.000000
		CHANNELS 3 Xrotation Yrotation Zrotation
		JOINT Hips
		{
			OFFSET -0.000000 -0.000000 -0.000000
			CHANNELS 3 Xrotation Yrotation Zrotation
			JOINT Spine
			{
				OFFSET 0.000000 10.199997 -0.299500
				CHANNELS 3 Xrotation Yrotation Zrotation
				JOINT Spine1
				{
					OFFSET 0.000000 11.900002 -1.516600
					CHANNELS 3 Xrotation Yrotation Zrotation
					JOINT Spine2
					{
						OFFSET 0.000000 13.600006 -2.842500
						CHANNELS 3 Xrotation Yrotation Zrotation
						JOINT Neck_virtual
						{
							OFFSET 0.000000 0.000000 0.000000
							CHANNELS 3 Xrotation Yrotation Zrotation
							JOINT Neck
							{
								OFFSET 0.000000 9.624100 -2.890100
								CHANNELS 3 Xrotation Yrotation Zrotation
								JOINT Head
								{
									OFFSET 0.000000 14.068802 -1.351900
									CHANNELS 3 Xrotation Yrotation Zrotation
									End Site
									{
										OFFSET 0 0 0
									}
								}
							}
						}
						JOINT LeftShoulder_virtual
						{
							OFFSET 0.000000 0.000000 0.000000
							CHANNELS 3 Xrotation Yrotation Zrotation
							JOINT LeftShoulder
							{
								OFFSET 15.263000 10.923401 -0.547700
								CHANNELS 3 Xrotation Yrotation Zrotation
								JOINT LeftArm
								{
									OFFSET 25.438599 -2.830597 -13.032500
									CHANNELS 3 Xrotation Yrotation Zrotation
									JOINT LeftForeArm
									{
										OFFSET 29.960503 0.000000 0.000000
										CHANNELS 3 Xrotation Yrotation Zrotation
										JOINT LeftHand
										{
											OFFSET 27.849251 0.000000 0.000000
											CHANNELS 3 Xrotation Yrotation Zrotation
											End Site
											{
												OFFSET 0 0 0
											}
										}
									}
								}
							}
						}
						JOINT RightShoulder_virtual
						{
							OFFSET 0.000000 0.000000 0.000000
							CHANNELS 3 Xrotation Yrotation Zrotation
							JOINT RightShoulder
							{
								OFFSET -15.263000 10.923401 -0.547700
								CHANNELS 3 Xrotation Yrotation Zrotation
								JOINT RightArm
								{
									OFFSET -25.438599 -2.830597 -13.032500
									CHANNELS 3 Xrotation Yrotation Zrotation
									JOINT RightForeArm
									{
										OFFSET -29.960503 0.000000 0.000000
										CHANNELS 3 Xrotation Yrotation Zrotation
										JOINT RightHand
										{
											OFFSET -27.849251 0.000000 0.000000
											CHANNELS 3 Xrotation Yrotation Zrotation
											End Site
											{
												OFFSET 0 0 0
											}
										}
									}
								}
							}
						}
					}
				}
			}
		}
	}
}
MOTION
Frames: 11
Frame Time: 0.03333333
-8.065923 84.841164 9.607166 0.000000 0.000000 0.000000 -0.152920 -18.042476 2.352539 -43.135578 -16.956798 -24.675754 15.900388 -7.430807 3.280106 35.530118 -20.327276 -11.502671 0.000000 0.000000 0.000000 -0.667563 -17.158665 2.018091 -3.643955 -11.388350 -14.944966 39.558065 7.405805 -4.216859 0.996569 13.777579 17.659965 0.000000 0.000000 0.000000 -0.088965 -17.581204 2.368560 -0.798580 0.098746 -0.087666 6.967063 4.618560 4.806588 7.230011 8.826122 -0.103713 0.000000 0.000000 0.000000 4.174758 10.209670 0.309067 2.205831 0.803388 0.878166 0.000000 0.000000 0.000000 5.700659 9.352809 1.196708 -2.300153 -2.710249 -11.069276 -21.169080 -31.153654 -69.834948 -15.534936 -65.382034 -18.170180 0.000000 0.000000 0.000000 3.760652 11.005336 -0.151870 2.965085 19.917259 18.406825 -41.167562 55.334754 65.456681 18.029259 50.121199 -21.867008 0.000000 0.000000 0.000000 
-7.821640 84.799896 9.688957 0.000000 0.000000 0.000000 0.005868 -18.211660 2.405286 -43.066699 -16.982137 -24.819357 15.856086 -7.546785 3.152104 34.625490 -20.621729 -11.796477 0.000000 0.000000 0.000000 -0.585201 -17.419646 2.038829 -2.769263 -11.153952 -14.777708 38.607368 7.117602 -4.201621 -0.485634 13.113792 17.365811 0.000000 0.000000 0.000000 0.014237 -17.752544 2.363171 -0.797415 0.101636 -0.084721 6.929963 4.620749 4.796735 7.161696 8.847385 -0.112837 0.000000 0.000000 0.000000 4.107129 10.221320 0.316108 2.252851 0.803304 0.872686 0.000000 0.000000 0.000000 5.716939 9.339975 1.160164 -2.307928 -2.719448 -11.064933 -21.278594 -31.180059 -69.961539 -15.528140 -65.430904 -18.136107 0.000000 0.000000 0.000000 3.853959 11.021952 -0.185352 2.947710 19.903060 18.385848 -41.148369 55.217418 65.317809 18.239168 50.452347 -22.124287 0.000000 0.000000 0.000000 
-7.559228 84.722420 9.734943 0.000000 0.000000 0.000000 0.220345 -18.234397 2.354929 -43.069213 -16.875420 -25.019955 15.908429 -7.488374 2.940906 33.724059 -20.580251 -11.998114 0.000000 0.000000 0.000000 -0.432853 -17.553945 1.957547 -1.523432 -11.216531 -14.476069 36.819224 6.856132 -4.117752 -1.364449 12.619005 16.951432 0.000000 0.000000 0.000000 0.160593 -17.890999 2.341319 -0.798463 0.096331 -0.075748 6.859674 4.697713 4.786666 7.056992 8.846390 -0.120815 0.000000 0.000000 0.000000 3.952989 10.206893 0.358204 2.280602 0.788844 0.876282 0.000000 0.000000 0.000000 5.688238 9.302928 1.128570 -2.300579 -2.804820 -11.094088 -21.596071 -31.337352 -70.170918 -15.450298 -65.396138 -18.028103 0.000000 0.000000 0.000000 3.946955 11.014919 -0.212125 2.990856 19.891751 18.248923 -41.081856 54.850572 65.074757 18.700645 51.248340 -22.635829 0.000000 0.000000 0.000000 
-7.298312 84.581406 9.823509 0.000000 0.000000 0.000000 0.452325 -18.196906 2.235215 -43.284510 -16.851222 -25.363646 16.218822 -7.301208 2.794720 32.666039 -19.979101 -11.953923 0.000000 0.000000 0.000000 -0.240392 -17.587467 1.827190 -0.434988 -11.305830 -14.053700 34.808133 6.785686 -4.088339 -0.859234 12.626584 16.646848 0.000000 0.000000 0.000000 0.307915 -17.965368 2.300104 -0.793575 0.094064 -0.065396 6.772787 4.831121 4.818062 6.925136 8.810011 -0.120462 0.000000 0.000000 0.000000 3.736788 10.163442 0.419094 2.301695 0.760317 0.899236 0.000000 0.000000 0.000000 5.617995 9.243338 1.091834 -2.277451 -2.914102 -11.136084 -21.969848 -31.562632 -70.382408 -15.373508 -65.396712 -17.939523 0.000000 0.000000 0.000000 4.017785 10.978211 -0.219189 3.087797 19.895583 17.998088 -40.943391 54.266673 64.769017 19.332483 52.329204 -23.326426 0.000000 0.000000 0.000000 
-7.062075 84.383446 9.960861 0.000000 0.000000 0.000000 0.741101 -18.230968 2.102865 -43.667746 -17.193271 -25.981428 16.684098 -7.272362 2.774594 31.029765 -19.118111 -11.937852 0.000000 0.000000 0.000000 0.021427 -17.432567 1.732430 0.415810 -11.207086 -13.583607 32.788217 6.832409 -4.269435 0.306493 12.907593 16.318611 0.000000 0.000000 0.000000 0.516596 -18.025390 2.242162 -0.791222 0.097359 -0.054813 6.630530 4.991474 4.905713 6.779071 8.738490 -0.121717 0.000000 0.000000 0.000000 3.499956 10.092823 0.481240 2.329657 0.721332 0.940657 0.000000 0.000000 0.000000 5.511905 9.167774 1.035820 -2.235419 -3.029970 -11.189063 -22.243305 -31.809335 -70.523342 -15.375311 -65.534736 -17.958849 0.000000 0.000000 0.000000 4.046828 10.907412 -0.209111 3.231941 19.946249 17.678297 -40.844067 53.523541 64.528082 20.046400 53.507757 -24.116747 0.000000 0.000000 0.000000 
-6.872248 84.155800 10.127197 0.000000 0.000000 0.000000 1.138942 -18.367057 2.017507 -44.062578 -17.821388 -26.654718 17.136144 -7.570729 2.750067 28.771188 -18.390699 -12.272145 0.000000 0.000000 0.000000 0.378603 -17.277520 1.705822 1.370906 -11.032479 -13.003354 30.920912 6.836540 -4.631433 0.985111 13.081043 15.877116 0.000000 0.000000 0.000000 0.791703 -18.078163 2.145704 -0.792872 0.101915 -0.060232 6.377598 5.143893 5.038429 6.633402 8.639578 -0.137032 0.000000 0.000000 0.000000 3.277786 10.001056 0.524962 2.374004 0.675993 0.993716 0.000000 0.000000 0.000000 5.364157 9.076951 0.965537 -2.172381 -3.144921 -11.200511 -22.359531 -32.041343 -70.572513 -15.465915 -65.846876 -18.103976 0.000000 0.000000 0.000000 4.016399 10.804136 -0.190399 3.418099 20.043409 17.346283 -40.889348 52.703031 64.469561 20.753028 54.615719 -24.926395 0.000000 0.000000 0.000000 
-6.714306 83.900665 10.298561 0.000000 0.000000 0.000000 1.606014 -18.518630 1.975740 -44.467926 -18.154988 -26.905650 17.596855 -8.062874 2.440456 26.445034 -17.876813 -12.903848 0.000000 0.000000 0.000000 0.818997 -17.344299 1.700031 2.457974 -11.009287 -12.368117 29.367307 6.673364 -4.983055 0.741472 13.094953 15.532048 0.000000 0.000000 0.000000 1.121685 -18.150319 2.005158 -0.792967 0.104995 -0.078535 6.010087 5.270145 5.190163 6.493646 8.526045 -0.163192 0.000000 0.000000 0.000000 3.124844 9.892878 0.545822 2.436850 0.628245 1.046998 0.000000 0.000000 0.000000 5.177634 8.974447 0.895832 -2.097036 -3.274813 -11.160967 -22.399860 -32.258263 -70.574207 -15.578608 -66.238806 -18.307561 0.000000 0.000000 0.000000 3.915568 10.673841 -0.166008 3.643968 20.164387 17.025805 -41.154321 51.895617 64.646094 21.401401 55.573216 -25.704012 0.000000 0.000000 0.000000 
-6.594892 83.679062 10.447460 0.000000 0.000000 0.000000 2.093253 -18.654165 1.917553 -44.947248 -17.704573 -26.462451 18.278286 -8.493626 1.700914 24.547912 -17.346415 -13.339131 0.000000 0.000000 0.000000 1.342468 -17.528393 1.663327 3.381450 -11.270388 -11.837777 28.258560 6.297979 -5.212529 0.325360 13.180835 15.673163 0.000000 0.000000 0.000000 1.552773 -18.315900 1.842732 -0.784480 0.113813 -0.097444 5.564592 5.387697 5.308166 6.361527 8.424792 -0.212157 0.000000 0.000000 0.000000 3.065686 9.774288 0.552845 2.509717 0.584467 1.083431 0.000000 0.000000 0.000000 4.976673 8.865056 0.835312 -2.016391 -3.431048 -11.090851 -22.465732 -32.479117 -70.559720 -15.645110 -66.564346 -18.481310 0.000000 0.000000 0.000000 3.761161 10.532269 -0.139815 3.908024 20.285382 16.744950 -41.632151 51.171122 65.001995 21.955775 56.358326 -26.412982 0.000000 0.000000 0.000000 
-6.524450 83.514999 10.641655 0.000000 0.000000 0.000000 2.604054 -18.814608 1.811781 -45.435006 -16.522661 -25.421766 19.160212 -8.773043 0.635625 23.496865 -16.510714 -13.074036 0.000000 0.000000 0.000000 1.989429 -17.885332 1.576683 3.778448 -11.572222 -11.323836 27.748642 5.790168 -5.375261 0.519599 13.480804 16.582958 0.000000 0.000000 0.000000 2.073717 -18.490041 1.677691 -0.771324 0.117093 -0.101649 5.145438 5.535079 5.365755 6.214162 8.352129 -0.255282 0.000000 0.000000 0.000000 3.093574 9.659406 0.556205 2.571868 0.551520 1.094774 0.000000 0.000000 0.000000 4.749432 8.759782 0.802033 -1.944890 -3.604352 -11.039934 -22.607433 -32.695453 -70.526655 -15.604812 -66.744615 -18.555044 0.000000 0.000000 0.000000 3.575286 10.394038 -0.092484 4.186742 20.346307 16.506515 -42.242869 50.571407 65.419320 22.396868 56.956220 -27.029507 0.000000 0.000000 0.000000 
-6.508080 83.477493 10.832386 0.000000 0.000000 0.000000 3.120890 -19.113101 1.678752 -45.692507 -14.887386 -24.060303 19.873824 -8.958636 -0.575498 23.367933 -15.297631 -12.024833 0.000000 0.000000 0.000000 2.707862 -18.371319 1.455072 3.454822 -11.477824 -10.826232 28.012390 5.173185 -5.606738 1.137956 13.871143 18.002505 0.000000 0.000000 0.000000 2.694847 -18.734613 1.546100 -0.762771 0.105659 -0.087406 4.857042 5.720175 5.341891 6.014958 8.297521 -0.251886 0.000000 0.000000 0.000000 3.195767 9.560778 0.573111 2.600576 0.529230 1.085291 0.000000 0.000000 0.000000 4.491832 8.668208 0.803529 -1.892901 -3.805461 -11.081639 -22.736520 -32.884834 -70.425404 -15.486906 -66.829549 -18.547481 0.000000 0.000000 0.000000 3.380719 10.277241 -0.015466 4.455721 20.305770 16.318831 -42.931451 50.105817 65.820791 22.734582 57.416530 -27.540730 0.000000 0.000000 0.000000 
-6.493773 83.569778 10.982742 0.000000 0.000000 0.000000 3.651189 -19.638524 1.556740 -45.641885 -13.134914 -22.594426 20.112732 -9.189816 -1.853938 23.708346 -13.910833 -10.505361 0.000000 0.000000 0.000000 3.380623 -18.860140 1.354861 2.516409 -10.785278 -10.388772 29.262692 4.207842 -6.052476 1.030243 13.682640 19.460331 0.000000 0.000000 0.000000 3.375974 -19.106544 1.472233 -0.753438 0.091568 -0.072743 4.776567 5.930363 5.196347 5.744217 8.252453 -0.181130 0.000000 0.000000 0.000000 3.316547 9.487149 0.602238 2.576885 0.525596 1.062500 0.000000 0.000000 0.000000 4.233036 8.599258 0.838302 -1.851051 -4.027404 -11.254775 -22.679800 -33.034613 -70.187898 -15.380850 -66.996690 -18.540893 0.000000 0.000000 0.000000 3.178679 10.188974 0.077962 4.693564 20.210721 16.217393 -43.665167 49.739289 66.181009 22.976299 57.778729 -27.949013 0.000000 0.000000 0.000000 
